<svg xmlns="http://www.w3.org/2000/svg" id="SvgjsSvg238939" width="4096" height="1554.5646741622877" version="1.1" xmlns:xlink="http://www.w3.org/1999/xlink" xmlns:svgjs="http://svgjs.com/svgjs"><defs id="SvgjsDefs238940"></defs><g id="SvgjsG238941" transform="translate(328, 327.99999999999994) scale(34.4)" opacity="1"><defs id="SvgjsDefs75552"></defs><g id="SvgjsG75553" transform="scale(0.21645021645021648)" opacity="1"><g id="SvgjsG75554" class="9CbTZCT4v" transform="translate(0, 0) scale(1.20679325425284)" light-content="false" non-strokable="false" fill="#e09706"><path d="M24 0h76v76c0 13.255-10.745 24-24 24H0V24C0 10.745 10.745 0 24 0z"></path></g><g id="SvgjsG75555" class="iuI4qYyWGp" transform="translate(10.363090506448051, 10.518811854654066) scale(1.562650620456435)" light-content="true" non-strokable="false" fill="#ffffff"><path d="M12 26h10a1 1 0 0 0 1-1V3a1 1 0 0 0-1-1H12a1 1 0 0 0-1 1v22a1 1 0 0 0 1 1zm1-22h8v20h-8V4zM6 48h6v2H6zm0 4h6v2H6zm0 4h6v2H6z"></path><path d="M3 62h12a1 1 0 0 0 1-1V45a1 1 0 0 0-1-1h-5V32a1 1 0 0 0-1-1H4V15h3.586l-1.293 1.293 1.414 1.414 3-3a.997.997 0 0 0 0-1.414l-3-3-1.414 1.414L7.586 13H3a1 1 0 0 0-1 1v18a1 1 0 0 0 1 1h5v11H3a1 1 0 0 0-1 1v16a1 1 0 0 0 1 1zm1-16h10v14H4V46zm46 0v15a1 1 0 0 0 1 1h10a1 1 0 0 0 1-1V46a1 1 0 0 0-1-1H51a1 1 0 0 0-1 1zm2 6h8v3h-8v-3zm0 8v-3h8v3h-8zm8-13v3h-8v-3h8zM16 20h2v2h-2zM15 6h4v2h-4zm0 4h4v2h-4zm18 4h4v3a1 1 0 0 0 1 1h8a1 1 0 0 0 1-1v-6a1 1 0 0 0-1-1h-4V7a1 1 0 0 0-1-1h-8a1 1 0 0 0-1 1v6a1 1 0 0 0 1 1zm12 2h-6v-4h6v4zM34 8h6v2h-2a1 1 0 0 0-1 1v1h-3V8z"></path><path d="M61 13h-8V3a1 1 0 0 0-1-1H26a1 1 0 0 0-1 1v18a1 1 0 0 0 1 1h10v2h-4v2h14v-2h-4v-2h10a1 1 0 0 0 1-1v-6h7v16h-4a.997.997 0 0 0-1 1v9.586l-1.293-1.293-1.414 1.414 3 3a.997.997 0 0 0 1.414 0l3-3-1.414-1.414L57 41.586V33h4a.997.997 0 0 0 1-1V14a1 1 0 0 0-1-1zM40 24h-2v-2h2v2zm11-4H27V4h24v16zM25.156 40.463l-7 11a1 1 0 0 0 .137 1.244l2 2a.997.997 0 0 0 1.414 0l7.654-7.654L42.25 61.662c.183.207.443.329.719.338H43c.265 0 .52-.105.707-.293l4-4a.998.998 0 0 0-.046-1.457L33.054 43.361l6.654-6.654a.999.999 0 0 0 0-1.414l-4-4a.999.999 0 0 0-1.414 0l-9 9a.934.934 0 0 0-.138.17zM43.045 59.54L30.778 45.637l.859-.859L45.54 57.045l-2.495 2.495zM35 33.414L37.586 36l-6.699 6.699-2.188 2.188L21 52.586l-.726-.726 6.51-10.231L35 33.414zm-14.707 2.293l1.414-1.414 2 2-1.415 1.414zM26 32h2v3h-2zm-8 8h3v2h-3z"></path></g><g id="SvgjsG75556" class="text" transform="translate(304.32549955465174, 64.90411309556691) scale(1)" light-content="false" fill="#4a4a4a"><path d="M-142.76 -26.17L-159.67 0L-150.81 0C-150.25 0 -149.78 -0.17 -149.4 -0.51C-149.03 -0.85 -148.71 -1.22 -148.45 -1.62L-137.16 -19.63C-137.05 -19.84 -136.93 -20.06 -136.81 -20.31C-136.7 -20.56 -136.59 -20.82 -136.5 -21.1L-124.71 -1.62C-124.46 -1.2 -124.13 -0.82 -123.75 -0.49C-123.36 -0.16 -122.85 0 -122.22 0L-112.76 0L-129.6 -26.55L-113.21 -50.86L-122.29 -50.86C-123.11 -50.86 -123.78 -50.42 -124.29 -49.55L-134.88 -32.85C-135.07 -32.54 -135.23 -32.25 -135.37 -31.95C-135.51 -31.66 -135.64 -31.36 -135.76 -31.06L-147.33 -49.73C-147.56 -50.13 -147.83 -50.42 -148.12 -50.59C-148.41 -50.77 -148.89 -50.86 -149.54 -50.86L-158.97 -50.86Z M-72.91 -41.61L-70.59 -46.07C-72.37 -47.76 -74.53 -49.07 -77.06 -50.01C-79.59 -50.95 -82.36 -51.42 -85.36 -51.42C-88.01 -51.42 -90.36 -51.01 -92.43 -50.19C-94.49 -49.37 -96.23 -48.28 -97.65 -46.92C-99.07 -45.56 -100.15 -44 -100.89 -42.24C-101.62 -40.48 -101.99 -38.68 -101.99 -36.82C-101.99 -34.5 -101.66 -32.55 -100.99 -30.97C-100.32 -29.38 -99.44 -28.07 -98.34 -27.01C-97.23 -25.96 -95.98 -25.1 -94.57 -24.44C-93.17 -23.79 -91.74 -23.22 -90.28 -22.76C-88.83 -22.29 -87.4 -21.85 -85.99 -21.45C-84.58 -21.06 -83.33 -20.57 -82.23 -19.99C-81.13 -19.42 -80.24 -18.71 -79.57 -17.87C-78.9 -17.02 -78.57 -15.93 -78.57 -14.6C-78.57 -12.2 -79.31 -10.37 -80.79 -9.09C-82.26 -7.81 -84.35 -7.17 -87.05 -7.17C-88.8 -7.17 -90.31 -7.42 -91.57 -7.9C-92.82 -8.38 -93.91 -8.91 -94.84 -9.5C-95.76 -10.08 -96.57 -10.62 -97.25 -11.1C-97.93 -11.58 -98.56 -11.82 -99.14 -11.82C-99.59 -11.82 -99.99 -11.71 -100.36 -11.48C-100.72 -11.26 -101.03 -10.98 -101.29 -10.66L-104.03 -6.12C-103.05 -5.11 -101.93 -4.2 -100.67 -3.38C-99.42 -2.56 -98.07 -1.85 -96.63 -1.27C-95.19 -0.68 -93.68 -0.23 -92.11 0.09C-90.54 0.4 -88.95 0.56 -87.33 0.56C-84.51 0.56 -82.02 0.13 -79.84 -0.72C-77.66 -1.58 -75.81 -2.75 -74.3 -4.24C-72.78 -5.73 -71.64 -7.47 -70.85 -9.48C-70.07 -11.48 -69.67 -13.63 -69.67 -15.93C-69.67 -18.04 -70.01 -19.84 -70.67 -21.31C-71.34 -22.79 -72.23 -24.04 -73.33 -25.06C-74.43 -26.08 -75.69 -26.92 -77.09 -27.59C-78.5 -28.26 -79.94 -28.85 -81.4 -29.35C-82.87 -29.85 -84.3 -30.33 -85.71 -30.77C-87.12 -31.22 -88.37 -31.72 -89.47 -32.29C-90.58 -32.85 -91.46 -33.53 -92.13 -34.33C-92.8 -35.12 -93.13 -36.12 -93.13 -37.32C-93.13 -38.25 -92.97 -39.12 -92.64 -39.9C-92.31 -40.69 -91.81 -41.36 -91.14 -41.92C-90.48 -42.49 -89.65 -42.93 -88.68 -43.24C-87.71 -43.56 -86.57 -43.72 -85.25 -43.72C-83.8 -43.72 -82.54 -43.53 -81.47 -43.17C-80.41 -42.81 -79.47 -42.4 -78.68 -41.96C-77.88 -41.51 -77.19 -41.11 -76.6 -40.74C-76.01 -40.38 -75.49 -40.2 -75.02 -40.2C-74.55 -40.2 -74.14 -40.31 -73.8 -40.52C-73.46 -40.73 -73.17 -41.09 -72.91 -41.61Z M-27.61 0L-27.61 -22.79C-27.61 -24.83 -27.91 -26.71 -28.51 -28.42C-29.1 -30.13 -29.98 -31.6 -31.13 -32.83C-32.27 -34.06 -33.68 -35.02 -35.33 -35.72C-36.98 -36.41 -38.86 -36.75 -40.97 -36.75C-46.84 -36.75 -51.84 -34.85 -55.99 -31.06L-54.41 -28.28C-54.15 -27.83 -53.81 -27.46 -53.39 -27.15C-52.97 -26.85 -52.46 -26.69 -51.88 -26.69C-51.17 -26.69 -50.53 -26.86 -49.94 -27.19C-49.36 -27.51 -48.72 -27.88 -48.02 -28.29C-47.33 -28.7 -46.52 -29.07 -45.58 -29.4C-44.64 -29.73 -43.47 -29.89 -42.06 -29.89C-40.12 -29.89 -38.63 -29.31 -37.61 -28.15C-36.59 -26.99 -36.08 -25.21 -36.08 -22.79L-36.08 -20.68C-40.19 -20.59 -43.62 -20.19 -46.39 -19.48C-49.16 -18.78 -51.37 -17.9 -53.04 -16.83C-54.7 -15.76 -55.89 -14.57 -56.61 -13.24C-57.32 -11.92 -57.68 -10.57 -57.68 -9.21C-57.68 -7.6 -57.42 -6.18 -56.91 -4.96C-56.39 -3.74 -55.67 -2.72 -54.74 -1.9C-53.82 -1.08 -52.71 -0.46 -51.42 -0.05C-50.13 0.36 -48.72 0.56 -47.2 0.56C-45.91 0.56 -44.74 0.46 -43.68 0.25C-42.63 0.04 -41.63 -0.28 -40.69 -0.7C-39.75 -1.13 -38.85 -1.65 -37.97 -2.27C-37.09 -2.89 -36.19 -3.61 -35.28 -4.43L-34.5 -1.86C-34.27 -1.11 -33.92 -0.62 -33.45 -0.37C-32.98 -0.12 -32.33 0 -31.51 0ZM-44.49 -5.42C-45.94 -5.42 -47.12 -5.74 -48.02 -6.4C-48.93 -7.06 -49.38 -8.15 -49.38 -9.67C-49.38 -10.45 -49.16 -11.16 -48.73 -11.82C-48.29 -12.47 -47.56 -13.05 -46.53 -13.54C-45.5 -14.03 -44.13 -14.44 -42.43 -14.75C-40.73 -15.07 -38.62 -15.29 -36.08 -15.4L-36.08 -9.32C-36.72 -8.66 -37.34 -8.1 -37.97 -7.61C-38.59 -7.13 -39.23 -6.73 -39.9 -6.4C-40.57 -6.07 -41.28 -5.83 -42.03 -5.66C-42.78 -5.5 -43.6 -5.42 -44.49 -5.42Z M-12.03 0L-3.34 0L-3.34 -26.41C-2.4 -27.49 -1.39 -28.34 -0.3 -28.96C0.79 -29.58 1.96 -29.89 3.2 -29.89C5.1 -29.89 6.54 -29.34 7.51 -28.24C8.48 -27.14 8.97 -25.38 8.97 -22.97L8.97 0L17.69 0L17.69 -22.97C17.69 -24.09 17.85 -25.09 18.18 -25.96C18.51 -26.82 18.96 -27.54 19.54 -28.12C20.11 -28.69 20.78 -29.13 21.54 -29.44C22.3 -29.74 23.13 -29.89 24.02 -29.89C25.97 -29.89 27.44 -29.31 28.45 -28.15C29.46 -26.99 29.97 -25.26 29.97 -22.97L29.97 0L38.65 0L38.65 -22.97C38.65 -25.15 38.38 -27.08 37.83 -28.77C37.27 -30.46 36.47 -31.89 35.42 -33.06C34.36 -34.23 33.06 -35.12 31.51 -35.73C29.97 -36.34 28.19 -36.65 26.2 -36.65C25.05 -36.65 23.91 -36.52 22.77 -36.26C21.64 -36 20.56 -35.6 19.55 -35.06C18.55 -34.53 17.62 -33.83 16.78 -32.97C15.93 -32.12 15.23 -31.09 14.67 -29.89C13.94 -31.93 12.84 -33.57 11.38 -34.8C9.91 -36.03 8.04 -36.65 5.77 -36.65C4.69 -36.65 3.7 -36.52 2.8 -36.28C1.89 -36.03 1.05 -35.7 0.26 -35.28C-0.52 -34.85 -1.26 -34.35 -1.95 -33.76C-2.64 -33.18 -3.31 -32.53 -3.94 -31.83L-4.5 -34.5C-4.85 -35.56 -5.59 -36.08 -6.72 -36.08L-12.03 -36.08Z M54.23 11.78L62.92 11.78L62.92 -2.99C64.05 -1.89 65.32 -1.03 66.74 -0.4C68.15 0.22 69.88 0.53 71.92 0.53C74.29 0.53 76.43 0.05 78.34 -0.9C80.25 -1.85 81.88 -3.17 83.23 -4.85C84.58 -6.54 85.62 -8.53 86.34 -10.83C87.07 -13.13 87.43 -15.63 87.43 -18.32C87.43 -21.28 87.11 -23.9 86.47 -26.18C85.82 -28.47 84.91 -30.39 83.72 -31.95C82.54 -33.51 81.13 -34.7 79.5 -35.52C77.87 -36.34 76.07 -36.75 74.1 -36.75C71.57 -36.75 69.36 -36.24 67.47 -35.21C65.59 -34.17 63.92 -32.83 62.46 -31.16L61.76 -34.5C61.64 -35.04 61.38 -35.44 60.99 -35.7C60.59 -35.96 60.11 -36.08 59.54 -36.08L54.23 -36.08ZM71.11 -29.89C72.26 -29.89 73.29 -29.68 74.19 -29.26C75.09 -28.84 75.86 -28.17 76.5 -27.26C77.13 -26.34 77.61 -25.15 77.95 -23.69C78.29 -22.22 78.46 -20.43 78.46 -18.32C78.46 -16.24 78.27 -14.43 77.87 -12.89C77.47 -11.35 76.9 -10.08 76.16 -9.07C75.42 -8.07 74.52 -7.32 73.45 -6.82C72.39 -6.33 71.2 -6.08 69.88 -6.08C68.55 -6.08 67.3 -6.32 66.14 -6.81C64.98 -7.29 63.9 -8.14 62.92 -9.36L62.92 -25.53C64.02 -26.92 65.21 -27.99 66.49 -28.75C67.77 -29.51 69.31 -29.89 71.11 -29.89Z M110.29 -52.26L101.61 -52.26L101.61 0L110.29 0Z M142.05 -36.65C139.36 -36.65 136.94 -36.18 134.79 -35.24C132.64 -34.3 130.83 -33.03 129.34 -31.42C127.85 -29.82 126.71 -27.93 125.91 -25.76C125.11 -23.59 124.71 -21.28 124.71 -18.82C124.71 -15.65 125.17 -12.87 126.09 -10.46C127 -8.06 128.25 -6.04 129.85 -4.41C131.44 -2.78 133.32 -1.55 135.48 -0.72C137.63 0.11 139.97 0.53 142.47 0.53C143.74 0.53 145.05 0.43 146.4 0.25C147.74 0.06 149.07 -0.26 150.37 -0.72C151.67 -1.18 152.92 -1.79 154.12 -2.55C155.31 -3.31 156.39 -4.26 157.35 -5.38L154.82 -8.55C154.63 -8.8 154.41 -9 154.15 -9.14C153.89 -9.28 153.59 -9.36 153.24 -9.36C152.7 -9.36 152.14 -9.19 151.57 -8.86C150.99 -8.53 150.32 -8.17 149.56 -7.77C148.8 -7.37 147.91 -7.01 146.89 -6.68C145.87 -6.35 144.66 -6.19 143.25 -6.19C140.39 -6.19 138.09 -7.06 136.36 -8.79C134.62 -10.53 133.62 -13.25 133.37 -16.95L155.66 -16.95C156.06 -16.95 156.39 -17 156.65 -17.11C156.91 -17.22 157.11 -17.39 157.26 -17.64C157.42 -17.88 157.52 -18.22 157.58 -18.66C157.64 -19.09 157.67 -19.64 157.67 -20.29C157.67 -22.9 157.28 -25.21 156.51 -27.24C155.73 -29.27 154.66 -30.98 153.27 -32.37C151.89 -33.77 150.24 -34.83 148.33 -35.56C146.42 -36.28 144.33 -36.65 142.05 -36.65ZM142.23 -30.42C143.52 -30.42 144.64 -30.21 145.6 -29.77C146.57 -29.34 147.36 -28.75 148 -28C148.63 -27.25 149.1 -26.37 149.4 -25.38C149.71 -24.38 149.86 -23.32 149.86 -22.19L133.54 -22.19C133.94 -24.82 134.85 -26.85 136.28 -28.28C137.72 -29.71 139.7 -30.42 142.23 -30.42Z"></path></g><g id="SvgjsG75557" class="text" transform="translate(303.2254995546517, 102.59510547903628) scale(1)" light-content="false" fill="#e09706"><path d="M-144.81 0L-144.81 -10.43C-144.81 -11.36 -144.95 -12.22 -145.22 -13C-145.5 -13.78 -145.9 -14.46 -146.42 -15.02C-146.95 -15.58 -147.59 -16.02 -148.35 -16.34C-149.1 -16.66 -149.96 -16.82 -150.93 -16.82C-153.61 -16.82 -155.9 -15.95 -157.8 -14.21L-157.08 -12.94C-156.96 -12.73 -156.8 -12.56 -156.61 -12.42C-156.42 -12.28 -156.19 -12.21 -155.92 -12.21C-155.6 -12.21 -155.3 -12.29 -155.03 -12.44C-154.76 -12.59 -154.47 -12.76 -154.16 -12.95C-153.84 -13.13 -153.47 -13.3 -153.04 -13.45C-152.61 -13.6 -152.07 -13.68 -151.43 -13.68C-150.54 -13.68 -149.86 -13.41 -149.39 -12.88C-148.93 -12.35 -148.69 -11.53 -148.69 -10.43L-148.69 -9.46C-150.57 -9.42 -152.14 -9.24 -153.41 -8.91C-154.67 -8.59 -155.69 -8.19 -156.45 -7.7C-157.21 -7.21 -157.75 -6.66 -158.08 -6.06C-158.41 -5.45 -158.57 -4.84 -158.57 -4.22C-158.57 -3.48 -158.45 -2.83 -158.22 -2.27C-157.98 -1.71 -157.65 -1.24 -157.23 -0.87C-156.8 -0.49 -156.3 -0.21 -155.71 -0.02C-155.12 0.16 -154.47 0.26 -153.78 0.26C-153.19 0.26 -152.65 0.21 -152.17 0.11C-151.69 0.02 -151.23 -0.13 -150.8 -0.32C-150.37 -0.51 -149.96 -0.75 -149.55 -1.04C-149.15 -1.32 -148.74 -1.65 -148.32 -2.03L-147.97 -0.85C-147.86 -0.51 -147.7 -0.28 -147.49 -0.17C-147.27 -0.06 -146.98 0 -146.6 0ZM-152.54 -2.48C-153.2 -2.48 -153.74 -2.63 -154.16 -2.93C-154.57 -3.23 -154.77 -3.73 -154.77 -4.43C-154.77 -4.78 -154.68 -5.11 -154.48 -5.41C-154.28 -5.71 -153.94 -5.97 -153.47 -6.2C-153 -6.42 -152.37 -6.61 -151.6 -6.75C-150.82 -6.9 -149.85 -6.99 -148.69 -7.05L-148.69 -4.26C-148.98 -3.96 -149.27 -3.7 -149.55 -3.48C-149.84 -3.26 -150.13 -3.08 -150.44 -2.93C-150.74 -2.78 -151.07 -2.67 -151.41 -2.59C-151.75 -2.52 -152.13 -2.48 -152.54 -2.48Z M-129.3 -13.02L-128.26 -14.47C-129 -15.21 -129.83 -15.77 -130.76 -16.17C-131.69 -16.57 -132.77 -16.77 -134 -16.77C-135.3 -16.77 -136.45 -16.55 -137.44 -16.12C-138.44 -15.69 -139.28 -15.1 -139.95 -14.35C-140.63 -13.59 -141.14 -12.69 -141.49 -11.66C-141.84 -10.62 -142.01 -9.5 -142.01 -8.29C-142.01 -6.94 -141.82 -5.73 -141.43 -4.67C-141.04 -3.62 -140.5 -2.72 -139.83 -2C-139.16 -1.27 -138.38 -0.71 -137.48 -0.33C-136.58 0.05 -135.62 0.24 -134.6 0.24C-134.02 0.24 -133.43 0.2 -132.84 0.11C-132.25 0.03 -131.68 -0.12 -131.13 -0.33C-130.58 -0.54 -130.04 -0.82 -129.53 -1.17C-129.01 -1.52 -128.54 -1.95 -128.1 -2.46L-129.24 -3.91C-129.4 -4.16 -129.64 -4.28 -129.96 -4.28C-130.21 -4.28 -130.43 -4.2 -130.63 -4.05C-130.83 -3.89 -131.06 -3.72 -131.33 -3.53C-131.6 -3.34 -131.93 -3.17 -132.32 -3.02C-132.71 -2.86 -133.22 -2.78 -133.86 -2.78C-134.49 -2.78 -135.06 -2.9 -135.56 -3.15C-136.07 -3.39 -136.49 -3.74 -136.85 -4.21C-137.2 -4.67 -137.47 -5.25 -137.66 -5.94C-137.85 -6.62 -137.94 -7.41 -137.94 -8.29C-137.94 -9.13 -137.86 -9.89 -137.69 -10.56C-137.51 -11.23 -137.25 -11.81 -136.91 -12.28C-136.56 -12.75 -136.12 -13.11 -135.59 -13.36C-135.07 -13.62 -134.46 -13.74 -133.76 -13.74C-133.21 -13.74 -132.75 -13.68 -132.38 -13.56C-132.01 -13.43 -131.69 -13.29 -131.43 -13.14C-131.16 -12.98 -130.93 -12.84 -130.73 -12.72C-130.54 -12.6 -130.34 -12.54 -130.14 -12.54C-129.92 -12.54 -129.76 -12.58 -129.65 -12.66C-129.54 -12.75 -129.42 -12.87 -129.3 -13.02Z M-113.95 -13.02L-112.9 -14.47C-113.65 -15.21 -114.48 -15.77 -115.41 -16.17C-116.34 -16.57 -117.42 -16.77 -118.65 -16.77C-119.95 -16.77 -121.1 -16.55 -122.09 -16.12C-123.09 -15.69 -123.93 -15.1 -124.6 -14.35C-125.28 -13.59 -125.79 -12.69 -126.14 -11.66C-126.49 -10.62 -126.66 -9.5 -126.66 -8.29C-126.66 -6.94 -126.47 -5.73 -126.08 -4.67C-125.68 -3.62 -125.15 -2.72 -124.48 -2C-123.81 -1.27 -123.03 -0.71 -122.13 -0.33C-121.22 0.05 -120.26 0.24 -119.24 0.24C-118.67 0.24 -118.08 0.2 -117.49 0.11C-116.9 0.03 -116.33 -0.12 -115.78 -0.33C-115.22 -0.54 -114.69 -0.82 -114.18 -1.17C-113.66 -1.52 -113.18 -1.95 -112.74 -2.46L-113.89 -3.91C-114.05 -4.16 -114.29 -4.28 -114.61 -4.28C-114.86 -4.28 -115.08 -4.2 -115.28 -4.05C-115.48 -3.89 -115.71 -3.72 -115.98 -3.53C-116.25 -3.34 -116.58 -3.17 -116.97 -3.02C-117.36 -2.86 -117.87 -2.78 -118.5 -2.78C-119.14 -2.78 -119.71 -2.9 -120.21 -3.15C-120.71 -3.39 -121.14 -3.74 -121.5 -4.21C-121.85 -4.67 -122.12 -5.25 -122.31 -5.94C-122.5 -6.62 -122.59 -7.41 -122.59 -8.29C-122.59 -9.13 -122.51 -9.89 -122.33 -10.56C-122.16 -11.23 -121.9 -11.81 -121.55 -12.28C-121.21 -12.75 -120.77 -13.11 -120.24 -13.36C-119.72 -13.62 -119.11 -13.74 -118.41 -13.74C-117.86 -13.74 -117.4 -13.68 -117.03 -13.56C-116.66 -13.43 -116.34 -13.29 -116.07 -13.14C-115.81 -12.98 -115.58 -12.84 -115.38 -12.72C-115.19 -12.6 -114.99 -12.54 -114.79 -12.54C-114.57 -12.54 -114.41 -12.58 -114.3 -12.66C-114.18 -12.75 -114.07 -12.87 -113.95 -13.02Z M-103.38 -16.77C-104.61 -16.77 -105.72 -16.55 -106.7 -16.12C-107.68 -15.69 -108.51 -15.11 -109.2 -14.38C-109.88 -13.64 -110.4 -12.78 -110.76 -11.79C-111.13 -10.79 -111.31 -9.74 -111.31 -8.61C-111.31 -7.16 -111.1 -5.89 -110.68 -4.79C-110.27 -3.69 -109.69 -2.77 -108.96 -2.02C-108.23 -1.27 -107.37 -0.71 -106.39 -0.33C-105.4 0.05 -104.33 0.24 -103.19 0.24C-102.61 0.24 -102.01 0.2 -101.39 0.11C-100.77 0.03 -100.17 -0.12 -99.57 -0.33C-98.98 -0.54 -98.41 -0.82 -97.86 -1.17C-97.31 -1.52 -96.82 -1.95 -96.38 -2.46L-97.54 -3.91C-97.62 -4.03 -97.73 -4.12 -97.84 -4.18C-97.96 -4.25 -98.1 -4.28 -98.26 -4.28C-98.51 -4.28 -98.76 -4.21 -99.03 -4.06C-99.29 -3.9 -99.59 -3.74 -99.94 -3.56C-100.29 -3.37 -100.7 -3.21 -101.17 -3.06C-101.63 -2.91 -102.19 -2.83 -102.83 -2.83C-104.14 -2.83 -105.19 -3.23 -105.99 -4.02C-106.78 -4.82 -107.24 -6.06 -107.35 -7.76L-97.15 -7.76C-96.97 -7.76 -96.82 -7.78 -96.7 -7.83C-96.58 -7.88 -96.49 -7.96 -96.42 -8.07C-96.35 -8.18 -96.3 -8.34 -96.27 -8.54C-96.25 -8.73 -96.23 -8.98 -96.23 -9.28C-96.23 -10.48 -96.41 -11.53 -96.77 -12.46C-97.12 -13.39 -97.61 -14.17 -98.25 -14.81C-98.88 -15.45 -99.63 -15.94 -100.51 -16.27C-101.38 -16.6 -102.34 -16.77 -103.38 -16.77ZM-103.3 -13.92C-102.71 -13.92 -102.19 -13.82 -101.75 -13.62C-101.31 -13.42 -100.95 -13.15 -100.66 -12.81C-100.37 -12.47 -100.16 -12.07 -100.02 -11.61C-99.88 -11.15 -99.81 -10.67 -99.81 -10.15L-107.27 -10.15C-107.09 -11.36 -106.67 -12.28 -106.02 -12.94C-105.36 -13.59 -104.46 -13.92 -103.3 -13.92Z M-83.2 -13.29L-82.3 -14.72C-82.92 -15.34 -83.7 -15.83 -84.63 -16.2C-85.57 -16.58 -86.6 -16.77 -87.74 -16.77C-88.76 -16.77 -89.66 -16.63 -90.43 -16.36C-91.21 -16.08 -91.86 -15.72 -92.38 -15.26C-92.9 -14.81 -93.29 -14.27 -93.56 -13.66C-93.83 -13.05 -93.97 -12.41 -93.97 -11.73C-93.97 -11 -93.85 -10.38 -93.62 -9.86C-93.39 -9.35 -93.08 -8.91 -92.7 -8.56C-92.32 -8.21 -91.89 -7.91 -91.4 -7.68C-90.91 -7.45 -90.41 -7.25 -89.9 -7.08C-89.39 -6.91 -88.89 -6.75 -88.41 -6.61C-87.92 -6.46 -87.48 -6.3 -87.1 -6.11C-86.72 -5.93 -86.42 -5.72 -86.19 -5.47C-85.95 -5.22 -85.84 -4.91 -85.84 -4.52C-85.84 -4.26 -85.89 -4.01 -85.99 -3.77C-86.09 -3.53 -86.25 -3.32 -86.47 -3.14C-86.69 -2.96 -86.97 -2.81 -87.31 -2.7C-87.65 -2.58 -88.05 -2.53 -88.53 -2.53C-89.13 -2.53 -89.62 -2.6 -90.02 -2.74C-90.41 -2.87 -90.75 -3.03 -91.04 -3.19C-91.33 -3.35 -91.58 -3.5 -91.8 -3.64C-92.02 -3.78 -92.25 -3.85 -92.5 -3.85C-92.75 -3.85 -92.95 -3.8 -93.11 -3.7C-93.27 -3.6 -93.41 -3.47 -93.53 -3.28L-94.45 -1.77C-94.13 -1.48 -93.75 -1.21 -93.33 -0.97C-92.91 -0.72 -92.44 -0.5 -91.95 -0.32C-91.45 -0.14 -90.93 0 -90.39 0.1C-89.84 0.21 -89.29 0.26 -88.72 0.26C-87.66 0.26 -86.72 0.12 -85.9 -0.15C-85.07 -0.43 -84.39 -0.81 -83.83 -1.3C-83.27 -1.78 -82.85 -2.36 -82.56 -3.03C-82.27 -3.7 -82.12 -4.44 -82.12 -5.23C-82.12 -5.89 -82.24 -6.46 -82.47 -6.94C-82.7 -7.41 -83 -7.81 -83.39 -8.15C-83.77 -8.49 -84.2 -8.77 -84.68 -8.99C-85.16 -9.21 -85.66 -9.4 -86.16 -9.57C-86.67 -9.75 -87.16 -9.9 -87.64 -10.05C-88.12 -10.19 -88.56 -10.36 -88.94 -10.54C-89.32 -10.72 -89.62 -10.93 -89.85 -11.18C-90.08 -11.42 -90.2 -11.71 -90.2 -12.07C-90.2 -12.6 -89.97 -13.04 -89.52 -13.37C-89.07 -13.7 -88.46 -13.87 -87.67 -13.87C-87.17 -13.87 -86.73 -13.82 -86.36 -13.71C-85.99 -13.6 -85.66 -13.48 -85.37 -13.35C-85.08 -13.21 -84.83 -13.09 -84.61 -12.99C-84.39 -12.88 -84.18 -12.82 -83.99 -12.82C-83.81 -12.82 -83.66 -12.86 -83.54 -12.93C-83.42 -13 -83.31 -13.12 -83.2 -13.29Z M-69.14 -13.29L-68.24 -14.72C-68.86 -15.34 -69.64 -15.83 -70.57 -16.2C-71.5 -16.58 -72.54 -16.77 -73.67 -16.77C-74.69 -16.77 -75.59 -16.63 -76.37 -16.36C-77.15 -16.08 -77.8 -15.72 -78.32 -15.26C-78.84 -14.81 -79.23 -14.27 -79.5 -13.66C-79.77 -13.05 -79.9 -12.41 -79.9 -11.73C-79.9 -11 -79.79 -10.38 -79.56 -9.86C-79.32 -9.35 -79.02 -8.91 -78.64 -8.56C-78.26 -8.21 -77.82 -7.91 -77.34 -7.68C-76.85 -7.45 -76.35 -7.25 -75.84 -7.08C-75.33 -6.91 -74.83 -6.75 -74.34 -6.61C-73.85 -6.46 -73.42 -6.3 -73.04 -6.11C-72.66 -5.93 -72.35 -5.72 -72.12 -5.47C-71.89 -5.22 -71.78 -4.91 -71.78 -4.52C-71.78 -4.26 -71.83 -4.01 -71.93 -3.77C-72.03 -3.53 -72.19 -3.32 -72.41 -3.14C-72.63 -2.96 -72.91 -2.81 -73.25 -2.7C-73.59 -2.58 -73.99 -2.53 -74.46 -2.53C-75.06 -2.53 -75.56 -2.6 -75.95 -2.74C-76.34 -2.87 -76.68 -3.03 -76.97 -3.19C-77.26 -3.35 -77.52 -3.5 -77.74 -3.64C-77.96 -3.78 -78.19 -3.85 -78.44 -3.85C-78.68 -3.85 -78.89 -3.8 -79.05 -3.7C-79.21 -3.6 -79.35 -3.47 -79.47 -3.28L-80.38 -1.77C-80.06 -1.48 -79.69 -1.21 -79.27 -0.97C-78.84 -0.72 -78.38 -0.5 -77.88 -0.32C-77.38 -0.14 -76.86 0 -76.32 0.1C-75.78 0.21 -75.22 0.26 -74.66 0.26C-73.59 0.26 -72.65 0.12 -71.83 -0.15C-71.01 -0.43 -70.32 -0.81 -69.76 -1.3C-69.21 -1.78 -68.78 -2.36 -68.49 -3.03C-68.2 -3.7 -68.06 -4.44 -68.06 -5.23C-68.06 -5.89 -68.17 -6.46 -68.4 -6.94C-68.63 -7.41 -68.94 -7.81 -69.32 -8.15C-69.7 -8.49 -70.13 -8.77 -70.62 -8.99C-71.1 -9.21 -71.59 -9.4 -72.1 -9.57C-72.6 -9.75 -73.09 -9.9 -73.58 -10.05C-74.06 -10.19 -74.49 -10.36 -74.87 -10.54C-75.25 -10.72 -75.56 -10.93 -75.79 -11.18C-76.02 -11.42 -76.14 -11.71 -76.14 -12.07C-76.14 -12.6 -75.91 -13.04 -75.46 -13.37C-75.01 -13.7 -74.39 -13.87 -73.61 -13.87C-73.11 -13.87 -72.67 -13.82 -72.3 -13.71C-71.93 -13.6 -71.6 -13.48 -71.31 -13.35C-71.02 -13.21 -70.76 -13.09 -70.54 -12.99C-70.32 -12.88 -70.12 -12.82 -69.92 -12.82C-69.74 -12.82 -69.59 -12.86 -69.47 -12.93C-69.36 -13 -69.24 -13.12 -69.14 -13.29Z M-65.71 -2.45C-65.71 -2.1 -65.65 -1.79 -65.54 -1.5C-65.43 -1.21 -65.27 -0.95 -65.07 -0.74C-64.87 -0.53 -64.64 -0.36 -64.36 -0.23C-64.08 -0.11 -63.77 -0.05 -63.44 -0.05C-63.5 0.27 -63.61 0.58 -63.75 0.86C-63.9 1.15 -64.06 1.41 -64.23 1.65C-64.4 1.89 -64.57 2.11 -64.74 2.29C-64.92 2.48 -65.06 2.64 -65.18 2.77C-65.26 2.85 -65.34 2.95 -65.4 3.06C-65.45 3.16 -65.48 3.26 -65.48 3.35C-65.48 3.58 -65.39 3.78 -65.19 3.94L-64.5 4.57C-63.93 4.12 -63.43 3.63 -62.99 3.09C-62.55 2.55 -62.18 2 -61.88 1.43C-61.58 0.86 -61.35 0.3 -61.2 -0.27C-61.04 -0.84 -60.96 -1.38 -60.96 -1.9C-60.96 -2.26 -61.01 -2.61 -61.11 -2.94C-61.2 -3.26 -61.35 -3.55 -61.56 -3.81C-61.76 -4.06 -62.01 -4.26 -62.31 -4.4C-62.61 -4.55 -62.97 -4.62 -63.38 -4.62C-63.72 -4.62 -64.04 -4.56 -64.33 -4.45C-64.61 -4.34 -64.86 -4.18 -65.07 -3.98C-65.27 -3.78 -65.43 -3.55 -65.54 -3.29C-65.65 -3.03 -65.71 -2.75 -65.71 -2.45Z M-51.42 0L-47.45 0L-47.45 -10.28C-47.04 -11.16 -46.54 -11.83 -45.95 -12.29C-45.36 -12.74 -44.65 -12.97 -43.82 -12.97C-43.36 -12.97 -42.99 -12.93 -42.71 -12.86C-42.44 -12.78 -42.22 -12.74 -42.05 -12.74C-41.87 -12.74 -41.73 -12.78 -41.62 -12.87C-41.51 -12.95 -41.44 -13.08 -41.41 -13.28L-40.9 -16.25C-41.43 -16.63 -42.11 -16.82 -42.92 -16.82C-43.91 -16.82 -44.8 -16.52 -45.59 -15.93C-46.39 -15.34 -47.08 -14.54 -47.67 -13.52L-47.91 -15.51C-47.97 -15.88 -48.07 -16.13 -48.23 -16.28C-48.39 -16.43 -48.68 -16.51 -49.09 -16.51L-51.42 -16.51Z M-31.45 -16.77C-32.68 -16.77 -33.79 -16.55 -34.77 -16.12C-35.75 -15.69 -36.59 -15.11 -37.27 -14.38C-37.95 -13.64 -38.47 -12.78 -38.84 -11.79C-39.2 -10.79 -39.38 -9.74 -39.38 -8.61C-39.38 -7.16 -39.17 -5.89 -38.76 -4.79C-38.34 -3.69 -37.76 -2.77 -37.03 -2.02C-36.3 -1.27 -35.45 -0.71 -34.46 -0.33C-33.47 0.05 -32.41 0.24 -31.26 0.24C-30.68 0.24 -30.08 0.2 -29.46 0.11C-28.85 0.03 -28.24 -0.12 -27.64 -0.33C-27.05 -0.54 -26.48 -0.82 -25.93 -1.17C-25.38 -1.52 -24.89 -1.95 -24.45 -2.46L-25.61 -3.91C-25.7 -4.03 -25.8 -4.12 -25.92 -4.18C-26.03 -4.25 -26.17 -4.28 -26.33 -4.28C-26.58 -4.28 -26.84 -4.21 -27.1 -4.06C-27.36 -3.9 -27.67 -3.74 -28.02 -3.56C-28.36 -3.37 -28.77 -3.21 -29.24 -3.06C-29.7 -2.91 -30.26 -2.83 -30.9 -2.83C-32.21 -2.83 -33.26 -3.23 -34.06 -4.02C-34.85 -4.82 -35.31 -6.06 -35.43 -7.76L-25.22 -7.76C-25.04 -7.76 -24.89 -7.78 -24.77 -7.83C-24.65 -7.88 -24.56 -7.96 -24.49 -8.07C-24.42 -8.18 -24.37 -8.34 -24.35 -8.54C-24.32 -8.73 -24.31 -8.98 -24.31 -9.28C-24.31 -10.48 -24.48 -11.53 -24.84 -12.46C-25.19 -13.39 -25.68 -14.17 -26.32 -14.81C-26.95 -15.45 -27.7 -15.94 -28.58 -16.27C-29.45 -16.6 -30.41 -16.77 -31.45 -16.77ZM-31.37 -13.92C-30.78 -13.92 -30.27 -13.82 -29.83 -13.62C-29.39 -13.42 -29.02 -13.15 -28.73 -12.81C-28.44 -12.47 -28.23 -12.07 -28.09 -11.61C-27.95 -11.15 -27.88 -10.67 -27.88 -10.15L-35.34 -10.15C-35.16 -11.36 -34.74 -12.28 -34.09 -12.94C-33.44 -13.59 -32.53 -13.92 -31.37 -13.92Z M-17.43 -16.51L-21.41 -16.51L-21.41 -6.02C-21.41 -5.1 -21.29 -4.25 -21.05 -3.48C-20.81 -2.72 -20.45 -2.05 -19.98 -1.5C-19.51 -0.94 -18.92 -0.51 -18.23 -0.2C-17.54 0.1 -16.74 0.26 -15.84 0.26C-15.29 0.26 -14.78 0.2 -14.31 0.09C-13.83 -0.02 -13.38 -0.18 -12.97 -0.38C-12.56 -0.58 -12.17 -0.82 -11.8 -1.1C-11.44 -1.39 -11.08 -1.7 -10.74 -2.04L-10.47 -0.72C-10.31 -0.24 -9.97 0 -9.45 0L-7.02 0L-7.02 -16.51L-11 -16.51L-11 -4.57C-11.53 -4.03 -12.1 -3.61 -12.7 -3.31C-13.3 -3 -13.95 -2.85 -14.64 -2.85C-15.57 -2.85 -16.27 -3.12 -16.74 -3.68C-17.2 -4.23 -17.43 -5.01 -17.43 -6.02Z M7.02 -13.29L7.92 -14.72C7.3 -15.34 6.53 -15.83 5.59 -16.2C4.66 -16.58 3.62 -16.77 2.49 -16.77C1.47 -16.77 0.57 -16.63 -0.21 -16.36C-0.99 -16.08 -1.64 -15.72 -2.16 -15.26C-2.68 -14.81 -3.07 -14.27 -3.34 -13.66C-3.61 -13.05 -3.74 -12.41 -3.74 -11.73C-3.74 -11 -3.63 -10.38 -3.4 -9.86C-3.16 -9.35 -2.86 -8.91 -2.48 -8.56C-2.1 -8.21 -1.66 -7.91 -1.17 -7.68C-0.69 -7.45 -0.19 -7.25 0.32 -7.08C0.83 -6.91 1.33 -6.75 1.82 -6.61C2.31 -6.46 2.74 -6.3 3.12 -6.11C3.5 -5.93 3.81 -5.72 4.04 -5.47C4.27 -5.22 4.38 -4.91 4.38 -4.52C4.38 -4.26 4.33 -4.01 4.23 -3.77C4.13 -3.53 3.97 -3.32 3.75 -3.14C3.53 -2.96 3.25 -2.81 2.91 -2.7C2.57 -2.58 2.17 -2.53 1.7 -2.53C1.1 -2.53 0.6 -2.6 0.21 -2.74C-0.18 -2.87 -0.52 -3.03 -0.81 -3.19C-1.1 -3.35 -1.36 -3.5 -1.58 -3.64C-1.8 -3.78 -2.03 -3.85 -2.28 -3.85C-2.52 -3.85 -2.73 -3.8 -2.89 -3.7C-3.05 -3.6 -3.19 -3.47 -3.31 -3.28L-4.22 -1.77C-3.9 -1.48 -3.53 -1.21 -3.11 -0.97C-2.68 -0.72 -2.22 -0.5 -1.72 -0.32C-1.22 -0.14 -0.7 0 -0.16 0.1C0.38 0.21 0.94 0.26 1.5 0.26C2.57 0.26 3.51 0.12 4.33 -0.15C5.15 -0.43 5.84 -0.81 6.4 -1.3C6.95 -1.78 7.38 -2.36 7.67 -3.03C7.96 -3.7 8.1 -4.44 8.1 -5.23C8.1 -5.89 7.99 -6.46 7.76 -6.94C7.53 -7.41 7.22 -7.81 6.84 -8.15C6.46 -8.49 6.03 -8.77 5.54 -8.99C5.06 -9.21 4.57 -9.4 4.06 -9.57C3.56 -9.75 3.07 -9.9 2.58 -10.05C2.1 -10.19 1.67 -10.36 1.29 -10.54C0.91 -10.72 0.6 -10.93 0.37 -11.18C0.14 -11.42 0.02 -11.71 0.02 -12.07C0.02 -12.6 0.25 -13.04 0.7 -13.37C1.15 -13.7 1.77 -13.87 2.55 -13.87C3.05 -13.87 3.49 -13.82 3.86 -13.71C4.23 -13.6 4.56 -13.48 4.85 -13.35C5.14 -13.21 5.4 -13.09 5.62 -12.99C5.84 -12.88 6.04 -12.82 6.24 -12.82C6.42 -12.82 6.57 -12.86 6.69 -12.93C6.8 -13 6.92 -13.12 7.02 -13.29Z M18.11 -16.77C16.88 -16.77 15.77 -16.55 14.79 -16.12C13.81 -15.69 12.97 -15.11 12.29 -14.38C11.61 -13.64 11.09 -12.78 10.72 -11.79C10.36 -10.79 10.18 -9.74 10.18 -8.61C10.18 -7.16 10.39 -5.89 10.81 -4.79C11.22 -3.69 11.8 -2.77 12.53 -2.02C13.26 -1.27 14.11 -0.71 15.1 -0.33C16.09 0.05 17.16 0.24 18.3 0.24C18.88 0.24 19.48 0.2 20.1 0.11C20.71 0.03 21.32 -0.12 21.92 -0.33C22.51 -0.54 23.08 -0.82 23.63 -1.17C24.18 -1.52 24.67 -1.95 25.11 -2.46L23.95 -3.91C23.87 -4.03 23.76 -4.12 23.65 -4.18C23.53 -4.25 23.39 -4.28 23.23 -4.28C22.98 -4.28 22.73 -4.21 22.46 -4.06C22.2 -3.9 21.89 -3.74 21.55 -3.56C21.2 -3.37 20.79 -3.21 20.32 -3.06C19.86 -2.91 19.3 -2.83 18.66 -2.83C17.35 -2.83 16.3 -3.23 15.5 -4.02C14.71 -4.82 14.25 -6.06 14.14 -7.76L24.34 -7.76C24.52 -7.76 24.67 -7.78 24.79 -7.83C24.91 -7.88 25 -7.96 25.07 -8.07C25.14 -8.18 25.19 -8.34 25.22 -8.54C25.24 -8.73 25.26 -8.98 25.26 -9.28C25.26 -10.48 25.08 -11.53 24.72 -12.46C24.37 -13.39 23.88 -14.17 23.24 -14.81C22.61 -15.45 21.86 -15.94 20.98 -16.27C20.11 -16.6 19.15 -16.77 18.11 -16.77ZM18.19 -13.92C18.78 -13.92 19.3 -13.82 19.74 -13.62C20.18 -13.42 20.54 -13.15 20.83 -12.81C21.12 -12.47 21.33 -12.07 21.47 -11.61C21.61 -11.15 21.68 -10.67 21.68 -10.15L14.22 -10.15C14.4 -11.36 14.82 -12.28 15.47 -12.94C16.13 -13.59 17.03 -13.92 18.19 -13.92Z M27.65 -2.45C27.65 -2.1 27.71 -1.79 27.82 -1.5C27.93 -1.21 28.09 -0.95 28.29 -0.74C28.49 -0.53 28.73 -0.36 29 -0.23C29.28 -0.11 29.59 -0.05 29.92 -0.05C29.86 0.27 29.75 0.58 29.61 0.86C29.46 1.15 29.31 1.41 29.13 1.65C28.96 1.89 28.79 2.11 28.62 2.29C28.45 2.48 28.3 2.64 28.18 2.77C28.1 2.85 28.03 2.95 27.97 3.06C27.91 3.16 27.88 3.26 27.88 3.35C27.88 3.58 27.97 3.78 28.17 3.94L28.86 4.57C29.43 4.12 29.93 3.63 30.37 3.09C30.81 2.55 31.18 2 31.48 1.43C31.78 0.86 32.01 0.3 32.17 -0.27C32.32 -0.84 32.4 -1.38 32.4 -1.9C32.4 -2.26 32.35 -2.61 32.26 -2.94C32.16 -3.26 32.01 -3.55 31.8 -3.81C31.6 -4.06 31.35 -4.26 31.05 -4.4C30.75 -4.55 30.39 -4.62 29.99 -4.62C29.64 -4.62 29.33 -4.56 29.04 -4.45C28.75 -4.34 28.5 -4.18 28.3 -3.98C28.09 -3.78 27.93 -3.55 27.82 -3.29C27.71 -3.03 27.65 -2.75 27.65 -2.45Z M54.88 0L54.88 -10.43C54.88 -11.36 54.74 -12.22 54.47 -13C54.2 -13.78 53.8 -14.46 53.27 -15.02C52.74 -15.58 52.1 -16.02 51.35 -16.34C50.59 -16.66 49.73 -16.82 48.76 -16.82C46.08 -16.82 43.79 -15.95 41.89 -14.21L42.62 -12.94C42.74 -12.73 42.89 -12.56 43.08 -12.42C43.28 -12.28 43.51 -12.21 43.78 -12.21C44.1 -12.21 44.39 -12.29 44.66 -12.44C44.93 -12.59 45.22 -12.76 45.54 -12.95C45.85 -13.13 46.23 -13.3 46.66 -13.45C47.09 -13.6 47.62 -13.68 48.27 -13.68C49.16 -13.68 49.83 -13.41 50.3 -12.88C50.77 -12.35 51 -11.53 51 -10.43L51 -9.46C49.12 -9.42 47.55 -9.24 46.29 -8.91C45.02 -8.59 44.01 -8.19 43.25 -7.7C42.48 -7.21 41.94 -6.66 41.61 -6.06C41.29 -5.45 41.12 -4.84 41.12 -4.22C41.12 -3.48 41.24 -2.83 41.48 -2.27C41.71 -1.71 42.04 -1.24 42.47 -0.87C42.89 -0.49 43.4 -0.21 43.99 -0.02C44.58 0.16 45.22 0.26 45.92 0.26C46.51 0.26 47.04 0.21 47.53 0.11C48.01 0.02 48.46 -0.13 48.89 -0.32C49.32 -0.51 49.74 -0.75 50.14 -1.04C50.54 -1.32 50.95 -1.65 51.37 -2.03L51.73 -0.85C51.83 -0.51 51.99 -0.28 52.21 -0.17C52.42 -0.06 52.72 0 53.09 0ZM47.16 -2.48C46.49 -2.48 45.95 -2.63 45.54 -2.93C45.13 -3.23 44.92 -3.73 44.92 -4.43C44.92 -4.78 45.02 -5.11 45.22 -5.41C45.42 -5.71 45.75 -5.97 46.22 -6.2C46.69 -6.42 47.32 -6.61 48.1 -6.75C48.87 -6.9 49.84 -6.99 51 -7.05L51 -4.26C50.71 -3.96 50.42 -3.7 50.14 -3.48C49.86 -3.26 49.56 -3.08 49.26 -2.93C48.95 -2.78 48.63 -2.67 48.28 -2.59C47.94 -2.52 47.56 -2.48 47.16 -2.48Z M70.41 0L72.84 0L72.84 -23.91L68.86 -23.91L68.86 -15.19C68.35 -15.68 67.76 -16.08 67.11 -16.37C66.45 -16.67 65.67 -16.82 64.74 -16.82C63.66 -16.82 62.68 -16.6 61.81 -16.16C60.95 -15.73 60.2 -15.13 59.58 -14.35C58.96 -13.58 58.48 -12.67 58.15 -11.62C57.81 -10.57 57.65 -9.43 57.65 -8.21C57.65 -6.85 57.79 -5.65 58.09 -4.6C58.38 -3.55 58.8 -2.67 59.34 -1.96C59.89 -1.24 60.53 -0.7 61.28 -0.32C62.03 0.05 62.86 0.24 63.76 0.24C64.34 0.24 64.88 0.18 65.38 0.06C65.88 -0.07 66.34 -0.24 66.78 -0.47C67.21 -0.69 67.62 -0.96 67.99 -1.27C68.37 -1.58 68.73 -1.93 69.07 -2.32L69.39 -0.72C69.55 -0.24 69.89 0 70.41 0ZM65.11 -2.91C64.6 -2.91 64.13 -3.01 63.71 -3.19C63.3 -3.38 62.94 -3.69 62.65 -4.11C62.36 -4.54 62.14 -5.08 61.98 -5.75C61.83 -6.42 61.75 -7.24 61.75 -8.21C61.75 -9.16 61.84 -9.99 62.02 -10.69C62.21 -11.4 62.47 -11.97 62.8 -12.43C63.14 -12.89 63.56 -13.23 64.04 -13.45C64.53 -13.68 65.08 -13.79 65.68 -13.79C66.29 -13.79 66.86 -13.68 67.39 -13.45C67.92 -13.23 68.41 -12.84 68.86 -12.29L68.86 -4.89C68.35 -4.26 67.8 -3.77 67.22 -3.43C66.64 -3.08 65.94 -2.91 65.11 -2.91Z M85.4 0L91.95 -16.51L88.82 -16.51C88.55 -16.51 88.32 -16.44 88.12 -16.3C87.93 -16.16 87.8 -15.98 87.72 -15.77L84.46 -6.95C84.26 -6.44 84.1 -5.93 83.98 -5.44C83.86 -4.95 83.75 -4.45 83.65 -3.96C83.55 -4.45 83.44 -4.95 83.32 -5.44C83.2 -5.93 83.04 -6.44 82.86 -6.95L79.68 -15.77C79.6 -15.98 79.46 -16.16 79.27 -16.3C79.07 -16.44 78.82 -16.51 78.53 -16.51L75.24 -16.51L81.8 0Z M107.24 0L107.24 -10.43C107.24 -11.36 107.1 -12.22 106.83 -13C106.56 -13.78 106.16 -14.46 105.63 -15.02C105.11 -15.58 104.47 -16.02 103.71 -16.34C102.95 -16.66 102.09 -16.82 101.13 -16.82C98.44 -16.82 96.15 -15.95 94.26 -14.21L94.98 -12.94C95.1 -12.73 95.25 -12.56 95.45 -12.42C95.64 -12.28 95.87 -12.21 96.14 -12.21C96.46 -12.21 96.75 -12.29 97.02 -12.44C97.29 -12.59 97.58 -12.76 97.9 -12.95C98.22 -13.13 98.59 -13.3 99.02 -13.45C99.45 -13.6 99.98 -13.68 100.63 -13.68C101.52 -13.68 102.2 -13.41 102.66 -12.88C103.13 -12.35 103.36 -11.53 103.36 -10.43L103.36 -9.46C101.49 -9.42 99.91 -9.24 98.65 -8.91C97.38 -8.59 96.37 -8.19 95.61 -7.7C94.85 -7.21 94.3 -6.66 93.97 -6.06C93.65 -5.45 93.48 -4.84 93.48 -4.22C93.48 -3.48 93.6 -2.83 93.84 -2.27C94.07 -1.71 94.4 -1.24 94.83 -0.87C95.25 -0.49 95.76 -0.21 96.35 -0.02C96.94 0.16 97.58 0.26 98.28 0.26C98.87 0.26 99.4 0.21 99.89 0.11C100.37 0.02 100.83 -0.13 101.25 -0.32C101.68 -0.51 102.1 -0.75 102.5 -1.04C102.9 -1.32 103.31 -1.65 103.73 -2.03L104.09 -0.85C104.19 -0.51 104.36 -0.28 104.57 -0.17C104.78 -0.06 105.08 0 105.45 0ZM99.52 -2.48C98.85 -2.48 98.31 -2.63 97.9 -2.93C97.49 -3.23 97.28 -3.73 97.28 -4.43C97.28 -4.78 97.38 -5.11 97.58 -5.41C97.78 -5.71 98.11 -5.97 98.58 -6.2C99.06 -6.42 99.68 -6.61 100.46 -6.75C101.24 -6.9 102.2 -6.99 103.36 -7.05L103.36 -4.26C103.07 -3.96 102.79 -3.7 102.5 -3.48C102.22 -3.26 101.92 -3.08 101.62 -2.93C101.31 -2.78 100.99 -2.67 100.64 -2.59C100.3 -2.52 99.92 -2.48 99.52 -2.48Z M111.15 0L115.13 0L115.13 -11.94C115.66 -12.48 116.23 -12.9 116.83 -13.21C117.43 -13.52 118.08 -13.68 118.76 -13.68C119.7 -13.68 120.4 -13.4 120.86 -12.85C121.33 -12.3 121.56 -11.52 121.56 -10.51L121.56 0L125.54 0L125.54 -10.51C125.54 -11.43 125.42 -12.28 125.17 -13.04C124.93 -13.81 124.58 -14.47 124.11 -15.02C123.65 -15.57 123.06 -16 122.37 -16.31C121.67 -16.61 120.87 -16.77 119.97 -16.77C119.41 -16.77 118.9 -16.71 118.42 -16.61C117.95 -16.5 117.51 -16.34 117.1 -16.14C116.68 -15.94 116.29 -15.69 115.92 -15.42C115.55 -15.14 115.2 -14.83 114.87 -14.48L114.59 -15.79C114.43 -16.27 114.1 -16.51 113.58 -16.51L111.15 -16.51Z M141.05 -13.02L142.09 -14.47C141.35 -15.21 140.52 -15.77 139.59 -16.17C138.66 -16.57 137.58 -16.77 136.35 -16.77C135.05 -16.77 133.9 -16.55 132.91 -16.12C131.91 -15.69 131.07 -15.1 130.4 -14.35C129.72 -13.59 129.21 -12.69 128.86 -11.66C128.51 -10.62 128.34 -9.5 128.34 -8.29C128.34 -6.94 128.53 -5.73 128.92 -4.67C129.32 -3.62 129.85 -2.72 130.52 -2C131.19 -1.27 131.97 -0.71 132.87 -0.33C133.78 0.05 134.74 0.24 135.75 0.24C136.33 0.24 136.92 0.2 137.51 0.11C138.1 0.03 138.67 -0.12 139.22 -0.33C139.77 -0.54 140.31 -0.82 140.82 -1.17C141.34 -1.52 141.82 -1.95 142.26 -2.46L141.11 -3.91C140.95 -4.16 140.71 -4.28 140.39 -4.28C140.14 -4.28 139.92 -4.2 139.72 -4.05C139.52 -3.89 139.29 -3.72 139.02 -3.53C138.75 -3.34 138.42 -3.17 138.03 -3.02C137.64 -2.86 137.13 -2.78 136.49 -2.78C135.86 -2.78 135.29 -2.9 134.79 -3.15C134.28 -3.39 133.86 -3.74 133.5 -4.21C133.15 -4.67 132.88 -5.25 132.69 -5.94C132.5 -6.62 132.41 -7.41 132.41 -8.29C132.41 -9.13 132.49 -9.89 132.67 -10.56C132.84 -11.23 133.1 -11.81 133.45 -12.28C133.79 -12.75 134.23 -13.11 134.76 -13.36C135.28 -13.62 135.89 -13.74 136.59 -13.74C137.14 -13.74 137.6 -13.68 137.97 -13.56C138.34 -13.43 138.66 -13.29 138.92 -13.14C139.19 -12.98 139.42 -12.84 139.62 -12.72C139.81 -12.6 140.01 -12.54 140.21 -12.54C140.43 -12.54 140.59 -12.58 140.7 -12.66C140.82 -12.75 140.93 -12.87 141.05 -13.02Z M151.62 -16.77C150.39 -16.77 149.28 -16.55 148.3 -16.12C147.32 -15.69 146.48 -15.11 145.8 -14.38C145.12 -13.64 144.6 -12.78 144.23 -11.79C143.87 -10.79 143.69 -9.74 143.69 -8.61C143.69 -7.16 143.9 -5.89 144.32 -4.79C144.73 -3.69 145.31 -2.77 146.04 -2.02C146.77 -1.27 147.62 -0.71 148.61 -0.33C149.6 0.05 150.67 0.24 151.81 0.24C152.39 0.24 152.99 0.2 153.61 0.11C154.22 0.03 154.83 -0.12 155.43 -0.33C156.02 -0.54 156.59 -0.82 157.14 -1.17C157.69 -1.52 158.18 -1.95 158.62 -2.46L157.46 -3.91C157.38 -4.03 157.27 -4.12 157.16 -4.18C157.04 -4.25 156.9 -4.28 156.74 -4.28C156.49 -4.28 156.24 -4.21 155.97 -4.06C155.71 -3.9 155.4 -3.74 155.06 -3.56C154.71 -3.37 154.3 -3.21 153.83 -3.06C153.37 -2.91 152.81 -2.83 152.17 -2.83C150.86 -2.83 149.81 -3.23 149.01 -4.02C148.22 -4.82 147.76 -6.06 147.65 -7.76L157.85 -7.76C158.03 -7.76 158.18 -7.78 158.3 -7.83C158.42 -7.88 158.51 -7.96 158.58 -8.07C158.65 -8.18 158.7 -8.34 158.73 -8.54C158.75 -8.73 158.77 -8.98 158.77 -9.28C158.77 -10.48 158.59 -11.53 158.23 -12.46C157.88 -13.39 157.39 -14.17 156.75 -14.81C156.12 -15.45 155.37 -15.94 154.49 -16.27C153.62 -16.6 152.66 -16.77 151.62 -16.77ZM151.7 -13.92C152.29 -13.92 152.81 -13.82 153.25 -13.62C153.69 -13.42 154.05 -13.15 154.34 -12.81C154.63 -12.47 154.84 -12.07 154.98 -11.61C155.12 -11.15 155.19 -10.67 155.19 -10.15L147.73 -10.15C147.91 -11.36 148.33 -12.28 148.98 -12.94C149.64 -13.59 150.54 -13.92 151.7 -13.92Z"></path></g></g></g></svg>